<?xml version="1.0" encoding="UTF-8" standalone="no"?>
<!-- Created with Inkscape (http://www.inkscape.org/) -->

<svg
   xmlns:dc="http://purl.org/dc/elements/1.1/"
   xmlns:cc="http://creativecommons.org/ns#"
   xmlns:rdf="http://www.w3.org/1999/02/22-rdf-syntax-ns#"
   xmlns:svg="http://www.w3.org/2000/svg"
   xmlns="http://www.w3.org/2000/svg"
   xmlns:sodipodi="http://sodipodi.sourceforge.net/DTD/sodipodi-0.dtd"
   xmlns:inkscape="http://www.inkscape.org/namespaces/inkscape"
   width="38.852871mm"
   height="49.999992mm"
   viewBox="0 0 38.852871 49.999992"
   version="1.1"
   id="svg8"
   inkscape:version="0.92.4 5da689c313, 2019-01-14"
   sodipodi:docname="tsukiLogo.svg"
   inkscape:export-filename="/home/alvaro/Desktop/AcheronProject/Tsuki/graphics/tsukiLogo/tsukiLogo.png"
   inkscape:export-xdpi="10000"
   inkscape:export-ydpi="10000">
  <defs
     id="defs2">
    <clipPath
       clipPathUnits="userSpaceOnUse"
       id="clipPath943">
      <flowRoot
         transform="matrix(0.97274639,0,0,0.97274639,-1713.2545,-302.63267)"
         style="font-style:normal;font-variant:normal;font-weight:normal;font-stretch:normal;font-size:40px;line-height:1.25;font-family:'Standard Symbols PS';-inkscape-font-specification:'Standard Symbols PS';letter-spacing:0px;word-spacing:0px;fill:#000000;fill-opacity:1;stroke:none"
         id="flowRoot951"
         xml:space="preserve"><flowRegion
           style="font-style:normal;font-variant:normal;font-weight:normal;font-stretch:normal;font-family:'Standard Symbols PS';-inkscape-font-specification:'Standard Symbols PS'"
           id="flowRegion947"><rect
             style="font-style:normal;font-variant:normal;font-weight:normal;font-stretch:normal;font-family:'Standard Symbols PS';-inkscape-font-specification:'Standard Symbols PS'"
             y="429.55505"
             x="2193.0413"
             height="296.98486"
             width="441.43668"
             id="rect945" /></flowRegion><flowPara
           style="font-style:normal;font-variant:normal;font-weight:normal;font-stretch:normal;font-family:Times;-inkscape-font-specification:Times"
           id="flowPara949">T</flowPara></flowRoot>    </clipPath>
    <clipPath
       clipPathUnits="userSpaceOnUse"
       id="clipPath1043">
      <flowRoot
         transform="matrix(0.97274639,0,0,0.97274639,-1506.3879,-302.63267)"
         style="font-style:normal;font-variant:normal;font-weight:normal;font-stretch:normal;font-size:40px;line-height:1.25;font-family:'Standard Symbols PS';-inkscape-font-specification:'Standard Symbols PS';letter-spacing:0px;word-spacing:0px;fill:#000000;fill-opacity:1;stroke:none"
         id="flowRoot1051"
         xml:space="preserve"><flowRegion
           style="font-style:normal;font-variant:normal;font-weight:normal;font-stretch:normal;font-family:'Standard Symbols PS';-inkscape-font-specification:'Standard Symbols PS'"
           id="flowRegion1047"><rect
             style="font-style:normal;font-variant:normal;font-weight:normal;font-stretch:normal;font-family:'Standard Symbols PS';-inkscape-font-specification:'Standard Symbols PS'"
             y="429.55505"
             x="2193.0413"
             height="296.98486"
             width="441.43668"
             id="rect1045" /></flowRegion><flowPara
           style="font-style:normal;font-variant:normal;font-weight:normal;font-stretch:normal;font-family:Times;-inkscape-font-specification:Times"
           id="flowPara1049">TS</flowPara></flowRoot>    </clipPath>
    <clipPath
       clipPathUnits="userSpaceOnUse"
       id="clipPath1053">
      <flowRoot
         transform="matrix(0.97274639,0,0,0.97274639,-1506.3879,-302.63267)"
         style="font-style:normal;font-variant:normal;font-weight:normal;font-stretch:normal;font-size:40px;line-height:1.25;font-family:'Standard Symbols PS';-inkscape-font-specification:'Standard Symbols PS';letter-spacing:0px;word-spacing:0px;fill:#000000;fill-opacity:1;stroke:none"
         id="flowRoot1061"
         xml:space="preserve"><flowRegion
           style="font-style:normal;font-variant:normal;font-weight:normal;font-stretch:normal;font-family:'Standard Symbols PS';-inkscape-font-specification:'Standard Symbols PS'"
           id="flowRegion1057"><rect
             style="font-style:normal;font-variant:normal;font-weight:normal;font-stretch:normal;font-family:'Standard Symbols PS';-inkscape-font-specification:'Standard Symbols PS'"
             y="429.55505"
             x="2193.0413"
             height="296.98486"
             width="441.43668"
             id="rect1055" /></flowRegion><flowPara
           style="font-style:normal;font-variant:normal;font-weight:normal;font-stretch:normal;font-family:Times;-inkscape-font-specification:Times"
           id="flowPara1059">TS</flowPara></flowRoot>    </clipPath>
    <clipPath
       clipPathUnits="userSpaceOnUse"
       id="clipPath1110">
      <g
         aria-label="TSUKI"
         transform="matrix(0.97274639,0,0,0.97274639,-1703.6915,-486.51409)"
         style="font-style:normal;font-variant:normal;font-weight:normal;font-stretch:normal;font-size:40px;line-height:1.25;font-family:'Standard Symbols PS';-inkscape-font-specification:'Standard Symbols PS';letter-spacing:0px;word-spacing:0px;fill:#000000;fill-opacity:1;stroke:none"
         id="g1122">
        <path
           d="m 2211.121,464.91469 c -3.28,-0.16 -3.8,-0.64 -3.84,-3.6 v -20.44 h 2.16 c 4.64,0.08 5.48,0.76 6.36,5.12 h 0.96 l -0.24,-6.8 h -22.56 l -0.24,6.8 h 0.96 c 0.92,-4.36 1.76,-5.04 6.36,-5.12 h 2.16 v 20 c -0.04,3.44 -0.4,3.84 -3.76,4.04 v 0.76 h 11.68 z"
           style="font-style:normal;font-variant:normal;font-weight:normal;font-stretch:normal;font-family:Times;-inkscape-font-specification:Times"
           id="path1112"
           inkscape:connector-curvature="0" />
        <path
           d="m 2234.9054,438.63469 h -0.84 c -0.16,0.88 -0.6,1.36 -1.28,1.36 -0.4,0 -1.08,-0.16 -1.76,-0.48 -1.48,-0.56 -2.96,-0.88 -4.28,-0.88 -1.68,0 -3.44,0.68 -4.76,1.84 -1.4,1.24 -2.12,2.92 -2.12,5 0,3.2 1.76,5.44 6.24,7.8 2.88,1.56 4.96,3.16 5.96,4.68 0.36,0.52 0.56,1.36 0.56,2.36 0,2.64 -2,4.48 -4.92,4.48 -3.6,0 -6.08,-2.2 -8.08,-7.08 h -0.92 l 1.2,8.48 h 0.88 c 0.04,-0.76 0.52,-1.32 1.12,-1.32 0.44,0 1.12,0.16 1.88,0.44 1.52,0.6 3.16,0.92 4.72,0.92 4.64,0 8.16,-3.16 8.16,-7.32 0,-3.28 -2.2,-5.84 -7.48,-8.72 -4.2,-2.28 -5.88,-4.04 -5.88,-6.24 0,-2.2 1.68,-3.68 4.16,-3.68 1.8,0 3.48,0.76 4.88,2.2 1.24,1.28 1.8,2.32 2.44,4.68 h 1 z"
           style="font-style:normal;font-variant:normal;font-weight:normal;font-stretch:normal;font-family:Times;-inkscape-font-specification:Times"
           id="path1114"
           inkscape:connector-curvature="0" />
        <path
           d="m 2267.491,439.19469 h -9.28 v 0.76 c 3.08,0.2 3.68,1 3.76,5.12 v 10.8 c 0,2.72 -0.24,4.24 -0.92,5.44 -1.08,1.92 -3.64,3.16 -6.64,3.16 -2.84,0 -4.8,-0.96 -5.88,-2.84 -0.72,-1.28 -1,-2.76 -1,-5.28 v -12.8 c 0.04,-2.92 0.44,-3.32 3.64,-3.6 v -0.76 h -11.32 v 0.76 c 3.16,0.24 3.56,0.64 3.6,3.6 v 12.48 c 0,6.92 3.24,10.2 10.04,10.2 4.36,0 7.36,-1.4 8.92,-4.12 0.96,-1.68 1.32,-3.52 1.32,-6.6 v -10.44 c 0.08,-4.2 0.52,-4.76 3.76,-5.12 z"
           style="font-style:normal;font-variant:normal;font-weight:normal;font-stretch:normal;font-family:Times;-inkscape-font-specification:Times"
           id="path1116"
           inkscape:connector-curvature="0" />
        <path
           d="m 2284.7173,439.95469 c 2.4,0.12 2.72,0.28 2.72,1.24 0,0.88 -0.92,2.08 -3.12,4.12 l -7.08,6.44 v -8.2 c 0.04,-3 0.44,-3.36 3.68,-3.6 v -0.76 h -11.36 v 0.76 c 3.08,0.2 3.52,0.68 3.6,3.6 v 17.32 c -0.04,3.4 -0.48,3.84 -3.6,4.04 v 0.76 h 11.28 v -0.76 c -3.08,-0.2 -3.56,-0.64 -3.6,-3.6 v -7.48 l 1.04,-0.84 4.24,4.2 c 3.08,3.08 5.2,5.84 5.2,6.8 0,0.6 -0.52,0.84 -1.68,0.88 -0.2,0 -0.64,0 -1.12,0.04 v 0.76 h 12.2 v -0.76 c -2.08,-0.04 -2.64,-0.44 -6.28,-4.32 l -9.32,-10 7.6,-7.52 c 2.72,-2.6 3.36,-2.92 6.08,-3.12 v -0.76 h -10.48 z"
           style="font-style:normal;font-variant:normal;font-weight:normal;font-stretch:normal;font-family:Times;-inkscape-font-specification:Times"
           id="path1118"
           inkscape:connector-curvature="0" />
        <path
           d="m 2298.8391,465.67469 h 11.88 v -0.76 c -3.28,-0.08 -3.84,-0.64 -3.92,-3.6 v -17.76 c 0.08,-3 0.6,-3.48 3.92,-3.6 v -0.76 h -11.88 v 0.76 c 3.4,0.2 3.84,0.6 3.88,3.6 v 17.76 c -0.04,3.04 -0.52,3.48 -3.88,3.6 z"
           style="font-style:normal;font-variant:normal;font-weight:normal;font-stretch:normal;font-family:Times;-inkscape-font-specification:Times"
           id="path1120"
           inkscape:connector-curvature="0" />
      </g>
    </clipPath>
    <clipPath
       clipPathUnits="userSpaceOnUse"
       id="clipPath1189">
      <g
         aria-label="TSUKI"
         transform="matrix(0.97274639,0,0,0.97274639,-1896.195,-302.63267)"
         style="font-style:normal;font-variant:normal;font-weight:normal;font-stretch:normal;font-size:40px;line-height:1.25;font-family:'Standard Symbols PS';-inkscape-font-specification:'Standard Symbols PS';letter-spacing:0px;word-spacing:0px;fill:#000000;fill-opacity:1;stroke:none"
         id="g1201">
        <path
           d="m 2211.121,464.91469 c -3.28,-0.16 -3.8,-0.64 -3.84,-3.6 v -20.44 h 2.16 c 4.64,0.08 5.48,0.76 6.36,5.12 h 0.96 l -0.24,-6.8 h -22.56 l -0.24,6.8 h 0.96 c 0.92,-4.36 1.76,-5.04 6.36,-5.12 h 2.16 v 20 c -0.04,3.44 -0.4,3.84 -3.76,4.04 v 0.76 h 11.68 z"
           style="font-style:normal;font-variant:normal;font-weight:normal;font-stretch:normal;font-family:Times;-inkscape-font-specification:Times"
           id="path1191"
           inkscape:connector-curvature="0" />
        <path
           d="m 2234.9054,438.63469 h -0.84 c -0.16,0.88 -0.6,1.36 -1.28,1.36 -0.4,0 -1.08,-0.16 -1.76,-0.48 -1.48,-0.56 -2.96,-0.88 -4.28,-0.88 -1.68,0 -3.44,0.68 -4.76,1.84 -1.4,1.24 -2.12,2.92 -2.12,5 0,3.2 1.76,5.44 6.24,7.8 2.88,1.56 4.96,3.16 5.96,4.68 0.36,0.52 0.56,1.36 0.56,2.36 0,2.64 -2,4.48 -4.92,4.48 -3.6,0 -6.08,-2.2 -8.08,-7.08 h -0.92 l 1.2,8.48 h 0.88 c 0.04,-0.76 0.52,-1.32 1.12,-1.32 0.44,0 1.12,0.16 1.88,0.44 1.52,0.6 3.16,0.92 4.72,0.92 4.64,0 8.16,-3.16 8.16,-7.32 0,-3.28 -2.2,-5.84 -7.48,-8.72 -4.2,-2.28 -5.88,-4.04 -5.88,-6.24 0,-2.2 1.68,-3.68 4.16,-3.68 1.8,0 3.48,0.76 4.88,2.2 1.24,1.28 1.8,2.32 2.44,4.68 h 1 z"
           style="font-style:normal;font-variant:normal;font-weight:normal;font-stretch:normal;font-family:Times;-inkscape-font-specification:Times"
           id="path1193"
           inkscape:connector-curvature="0" />
        <path
           d="m 2267.491,439.19469 h -9.28 v 0.76 c 3.08,0.2 3.68,1 3.76,5.12 v 10.8 c 0,2.72 -0.24,4.24 -0.92,5.44 -1.08,1.92 -3.64,3.16 -6.64,3.16 -2.84,0 -4.8,-0.96 -5.88,-2.84 -0.72,-1.28 -1,-2.76 -1,-5.28 v -12.8 c 0.04,-2.92 0.44,-3.32 3.64,-3.6 v -0.76 h -11.32 v 0.76 c 3.16,0.24 3.56,0.64 3.6,3.6 v 12.48 c 0,6.92 3.24,10.2 10.04,10.2 4.36,0 7.36,-1.4 8.92,-4.12 0.96,-1.68 1.32,-3.52 1.32,-6.6 v -10.44 c 0.08,-4.2 0.52,-4.76 3.76,-5.12 z"
           style="font-style:normal;font-variant:normal;font-weight:normal;font-stretch:normal;font-family:Times;-inkscape-font-specification:Times"
           id="path1195"
           inkscape:connector-curvature="0" />
        <path
           d="m 2284.7173,439.95469 c 2.4,0.12 2.72,0.28 2.72,1.24 0,0.88 -0.92,2.08 -3.12,4.12 l -7.08,6.44 v -8.2 c 0.04,-3 0.44,-3.36 3.68,-3.6 v -0.76 h -11.36 v 0.76 c 3.08,0.2 3.52,0.68 3.6,3.6 v 17.32 c -0.04,3.4 -0.48,3.84 -3.6,4.04 v 0.76 h 11.28 v -0.76 c -3.08,-0.2 -3.56,-0.64 -3.6,-3.6 v -7.48 l 1.04,-0.84 4.24,4.2 c 3.08,3.08 5.2,5.84 5.2,6.8 0,0.6 -0.52,0.84 -1.68,0.88 -0.2,0 -0.64,0 -1.12,0.04 v 0.76 h 12.2 v -0.76 c -2.08,-0.04 -2.64,-0.44 -6.28,-4.32 l -9.32,-10 7.6,-7.52 c 2.72,-2.6 3.36,-2.92 6.08,-3.12 v -0.76 h -10.48 z"
           style="font-style:normal;font-variant:normal;font-weight:normal;font-stretch:normal;font-family:Times;-inkscape-font-specification:Times"
           id="path1197"
           inkscape:connector-curvature="0" />
        <path
           d="m 2298.8391,465.67469 h 11.88 v -0.76 c -3.28,-0.08 -3.84,-0.64 -3.92,-3.6 v -17.76 c 0.08,-3 0.6,-3.48 3.92,-3.6 v -0.76 h -11.88 v 0.76 c 3.4,0.2 3.84,0.6 3.88,3.6 v 17.76 c -0.04,3.04 -0.52,3.48 -3.88,3.6 z"
           style="font-style:normal;font-variant:normal;font-weight:normal;font-stretch:normal;font-family:Times;-inkscape-font-specification:Times"
           id="path1199"
           inkscape:connector-curvature="0" />
      </g>
    </clipPath>
  </defs>
  <sodipodi:namedview
     id="base"
     pagecolor="#ffffff"
     bordercolor="#666666"
     borderopacity="1.0"
     inkscape:pageopacity="0.0"
     inkscape:pageshadow="2"
     inkscape:zoom="0.70710681"
     inkscape:cx="498.53111"
     inkscape:cy="41.404901"
     inkscape:document-units="mm"
     inkscape:current-layer="layer1"
     showgrid="false"
     inkscape:window-width="1920"
     inkscape:window-height="1052"
     inkscape:window-x="1920"
     inkscape:window-y="294"
     inkscape:window-maximized="1"
     inkscape:snap-text-baseline="true"
     fit-margin-top="0"
     fit-margin-left="0"
     fit-margin-right="0"
     fit-margin-bottom="0" />
  <metadata
     id="metadata5">
    <rdf:RDF>
      <cc:Work
         rdf:about="">
        <dc:format>image/svg+xml</dc:format>
        <dc:type
           rdf:resource="http://purl.org/dc/dcmitype/StillImage" />
        <dc:title />
      </cc:Work>
    </rdf:RDF>
  </metadata>
  <g
     inkscape:label="Layer 1"
     inkscape:groupmode="layer"
     id="layer1"
     transform="translate(-39.894067,-187.67879)">
    <flowRoot
       transform="matrix(0.27900065,0,0,0.27900065,-569.87531,107.599)"
       style="font-style:normal;font-variant:normal;font-weight:normal;font-stretch:normal;font-size:40px;line-height:1.25;font-family:'Standard Symbols PS';-inkscape-font-specification:'Standard Symbols PS';letter-spacing:0px;word-spacing:0px;fill:#000000;fill-opacity:1;stroke:none"
       id="flowRoot1138"
       xml:space="preserve"><flowRegion
         style="font-style:normal;font-variant:normal;font-weight:normal;font-stretch:normal;font-family:'Standard Symbols PS';-inkscape-font-specification:'Standard Symbols PS'"
         id="flowRegion1134"><rect
           style="font-style:normal;font-variant:normal;font-weight:normal;font-stretch:normal;font-family:'Standard Symbols PS';-inkscape-font-specification:'Standard Symbols PS'"
           y="429.55505"
           x="2193.0413"
           height="296.98486"
           width="441.43668"
           id="rect1132" /></flowRegion><flowPara
         style="font-style:normal;font-variant:normal;font-weight:normal;font-stretch:normal;font-family:Times;-inkscape-font-specification:Times"
         id="flowPara1136">TSUKI</flowPara></flowRoot>    <g
       transform="matrix(0.08094626,0,0,0.08094626,193.03933,163.6845)"
       id="layer1-6"
       inkscape:label="レイヤー 1">
      <path
         id="path2984"
         d="m -1828.7528,374.14705 c -86.5375,94.16186 -84.1942,240.6771 7.0932,331.96453 93.7258,93.72583 245.6854,93.72583 339.4112,0 93.7259,-93.72583 93.7259,-245.68542 0,-339.41125 -91.2874,-91.28744 -237.8026,-93.6307 -331.9645,-7.09317 78.5105,-70.93507 199.7319,-68.57091 275.396,7.09317 78.1049,78.10486 78.1049,204.73785 0,282.84271 -78.1049,78.10486 -204.7379,78.10486 -282.8427,0 -75.6641,-75.66408 -78.0283,-196.88551 -7.0932,-275.39599 z"
         style="fill:#000000;fill-opacity:1;fill-rule:nonzero;stroke:none"
         inkscape:connector-curvature="0" />
      <ellipse
         ry="37.34639"
         rx="33.482971"
         cy="106.10015"
         cx="-9.6585493"
         transform="matrix(0.95032804,-0.95032804,0.8520182,0.8520182,-1871.0599,298.94225)"
         id="path3754-6"
         style="fill:#000000;fill-opacity:1;fill-rule:nonzero;stroke:none" />
      <path
         style="fill:#000000;stroke-width:1.68139601"
         d="m -1602.1393,639.02327 c -4.589,-4.70626 -15.9101,-14.65558 -25.1577,-22.10958 -16.6742,-13.44017 -21.1613,-18.15333 -14.9417,-15.69462 1.7445,0.68963 10.1203,2.84618 18.6128,4.79233 12.498,2.86397 16.2636,3.16364 19.7566,1.57217 l 4.3153,-1.96624 V 502.31295 c 0,-56.81741 -0.4591,-104.50121 -1.0205,-105.964 -1.8434,-4.80359 -12.1159,-3.56658 -56.1766,6.76472 l -26.0913,6.11786 0.6128,23.75507 c 0.3372,13.0653 1.1072,24.26777 1.7112,24.89442 1.7476,1.81313 39.2959,-8.44662 44.3261,-12.11174 5.8652,-4.27372 15.7343,-4.26293 22.7669,0.0249 11.1419,6.79334 8.0094,8.27677 -34.8486,16.50304 l -32.7467,6.28552 -1.0907,6.68994 c -0.5997,3.67947 -1.6094,14.06706 -2.2436,23.08355 l -1.1531,16.39361 6.4067,-10e-4 c 11.348,-0.002 37.8124,-8.18107 43.3975,-13.41214 4.8648,-4.55656 5.3221,-4.65193 12.865,-2.6832 8.2312,2.14845 16.5593,6.77725 16.5593,9.20383 0,0.79021 -0.9457,2.21409 -2.1016,3.16419 -2.7862,2.28991 -47.3187,10.54192 -64.2275,11.90153 l -13.3653,1.07465 -2.8522,14.5164 c -7.2116,36.70481 -17.5948,60.09429 -38.7684,87.33043 -4.9461,6.36251 -10.0019,11.58603 -11.235,11.60782 -1.233,0.0217 -1.9821,-0.52787 -1.6649,-1.22145 0.3173,-0.69358 4.1369,-8.51561 8.4879,-17.38232 14.3334,-29.20941 23.1213,-60.85341 26.341,-94.85088 0.9634,-10.17243 2.2381,-37.78937 2.8328,-61.37095 1.1543,-45.77867 0.952,-47.45671 -7.1438,-59.22392 -5.7822,-8.40446 -4.3627,-12.16887 3.9977,-10.60048 3.406,0.63898 8.9373,2.74133 12.2918,4.67187 l 6.0988,3.51008 38.5526,-9.6349 c 21.2039,-5.29918 41.7245,-11.21422 45.6013,-13.1445 l 7.0486,-3.5096 11.7836,7.00051 c 6.4811,3.85029 12.1403,7.57743 12.5759,8.28256 0.4358,0.70515 -0.6369,5.4226 -2.3837,10.48323 -2.9564,8.56501 -3.1705,15.13007 -3.0972,94.95237 0.043,47.16317 0.6475,92.18254 1.3424,100.04307 1.1699,13.23116 0.8966,15.35258 -3.6822,28.58373 -6.0899,17.59813 -9.075,23.53954 -11.8268,23.53954 -1.1668,0 -5.8763,-3.85057 -10.4655,-8.55686 z"
         id="path825"
         inkscape:connector-curvature="0"
         sodipodi:nodetypes="ccccscscscccccsccscccsscccsccssssccccssccccsssscc" />
    </g>
  </g>
</svg>
